<mxfile host="app.diagrams.net" agent="Mozilla/5.0 (Macintosh; Intel Mac OS X 10_15_7) AppleWebKit/537.36 (KHTML, like Gecko) Chrome/135.0.0.0 Safari/537.36" version="26.2.13">
  <diagram name="第 1 页" id="XNOgLLyQOgWQ8Jqspt87">
    <mxGraphModel dx="948" dy="610" grid="1" gridSize="10" guides="1" tooltips="1" connect="1" arrows="1" fold="1" page="1" pageScale="1" pageWidth="827" pageHeight="1169" math="0" shadow="0">
      <root>
        <mxCell id="0" />
        <mxCell id="1" parent="0" />
        <mxCell id="E3BWysnh0JCf3asBgDTX-1" value="&lt;b&gt;区块链&lt;/b&gt;&lt;div&gt;&lt;b&gt;&lt;br&gt;&lt;/b&gt;&lt;/div&gt;&lt;div&gt;&lt;b&gt;&lt;br&gt;&lt;/b&gt;&lt;/div&gt;&lt;div&gt;&lt;b&gt;&lt;br&gt;&lt;/b&gt;&lt;/div&gt;&lt;div&gt;&lt;b&gt;&lt;br&gt;&lt;/b&gt;&lt;/div&gt;&lt;div&gt;&lt;b&gt;&lt;br&gt;&lt;/b&gt;&lt;/div&gt;&lt;div&gt;&lt;b&gt;&lt;br&gt;&lt;/b&gt;&lt;/div&gt;&lt;div&gt;&lt;b&gt;&lt;br&gt;&lt;/b&gt;&lt;/div&gt;&lt;div&gt;&lt;b&gt;&lt;br&gt;&lt;/b&gt;&lt;/div&gt;&lt;div&gt;&lt;b&gt;&lt;br&gt;&lt;/b&gt;&lt;/div&gt;&lt;div&gt;&lt;b&gt;&lt;br&gt;&lt;/b&gt;&lt;/div&gt;&lt;div&gt;&lt;b&gt;&lt;br&gt;&lt;/b&gt;&lt;/div&gt;&lt;div&gt;&lt;b&gt;&lt;br&gt;&lt;/b&gt;&lt;/div&gt;&lt;div&gt;&lt;b&gt;&lt;br&gt;&lt;/b&gt;&lt;/div&gt;&lt;div&gt;&lt;b&gt;&lt;br&gt;&lt;/b&gt;&lt;/div&gt;&lt;div&gt;&lt;b&gt;&lt;br&gt;&lt;/b&gt;&lt;/div&gt;&lt;div&gt;&lt;b&gt;&lt;br&gt;&lt;/b&gt;&lt;/div&gt;&lt;div&gt;&lt;b&gt;&lt;br&gt;&lt;/b&gt;&lt;/div&gt;&lt;div&gt;&lt;b&gt;&lt;br&gt;&lt;/b&gt;&lt;/div&gt;&lt;div&gt;&lt;b&gt;&lt;br&gt;&lt;/b&gt;&lt;/div&gt;&lt;div&gt;&lt;br&gt;&lt;/div&gt;" style="rounded=1;whiteSpace=wrap;html=1;fillColor=#fad9d5;strokeColor=#ae4132;" vertex="1" parent="1">
          <mxGeometry x="515" y="472.5" width="170" height="322" as="geometry" />
        </mxCell>
        <mxCell id="E3BWysnh0JCf3asBgDTX-2" value="&lt;font style=&quot;font-size: 9px;&quot;&gt;&lt;b&gt;&amp;nbsp;接入层&lt;/b&gt;&lt;/font&gt;" style="rounded=1;whiteSpace=wrap;html=1;fillColor=#f8cecc;strokeColor=#b85450;align=left;" vertex="1" parent="1">
          <mxGeometry x="522.5" y="507" width="157.5" height="27" as="geometry" />
        </mxCell>
        <mxCell id="E3BWysnh0JCf3asBgDTX-3" value="&lt;font style=&quot;font-size: 9px;&quot;&gt;API&lt;/font&gt;" style="rounded=0;whiteSpace=wrap;html=1;strokeColor=none;" vertex="1" parent="1">
          <mxGeometry x="559" y="511.5" width="36" height="18" as="geometry" />
        </mxCell>
        <mxCell id="E3BWysnh0JCf3asBgDTX-4" value="&lt;font style=&quot;font-size: 9px;&quot;&gt;事件&lt;/font&gt;" style="rounded=0;whiteSpace=wrap;html=1;strokeColor=none;" vertex="1" parent="1">
          <mxGeometry x="598" y="511.5" width="36" height="18" as="geometry" />
        </mxCell>
        <mxCell id="E3BWysnh0JCf3asBgDTX-5" value="&lt;font style=&quot;font-size: 9px;&quot;&gt;SDK&lt;/font&gt;" style="rounded=0;whiteSpace=wrap;html=1;strokeColor=none;" vertex="1" parent="1">
          <mxGeometry x="638.23" y="511.5" width="36" height="18" as="geometry" />
        </mxCell>
        <mxCell id="E3BWysnh0JCf3asBgDTX-6" value="&lt;font style=&quot;font-size: 9px;&quot;&gt;&lt;b&gt;&amp;nbsp;应用层&lt;/b&gt;&lt;/font&gt;" style="rounded=1;whiteSpace=wrap;html=1;fillColor=#f8cecc;strokeColor=#b85450;align=left;" vertex="1" parent="1">
          <mxGeometry x="528.27" y="548" width="145.96" height="133" as="geometry" />
        </mxCell>
        <mxCell id="E3BWysnh0JCf3asBgDTX-7" value="&lt;font style=&quot;font-size: 9px;&quot;&gt;&lt;b&gt;&amp;nbsp;服务层&lt;/b&gt;&lt;/font&gt;" style="rounded=1;whiteSpace=wrap;html=1;align=left;fillColor=#f8cecc;strokeColor=#b85450;" vertex="1" parent="1">
          <mxGeometry x="530.04" y="687" width="145.96" height="99" as="geometry" />
        </mxCell>
        <mxCell id="E3BWysnh0JCf3asBgDTX-8" value="&lt;font style=&quot;font-size: 9px;&quot;&gt;智能合约&lt;/font&gt;&lt;div&gt;&lt;font style=&quot;font-size: 9px;&quot;&gt;&lt;br&gt;&lt;/font&gt;&lt;/div&gt;&lt;div&gt;&lt;br&gt;&lt;/div&gt;&lt;div&gt;&lt;br&gt;&lt;/div&gt;" style="rounded=1;whiteSpace=wrap;html=1;align=center;strokeColor=none;" vertex="1" parent="1">
          <mxGeometry x="566.23" y="586.5" width="96" height="56" as="geometry" />
        </mxCell>
        <mxCell id="E3BWysnh0JCf3asBgDTX-9" value="&lt;font style=&quot;font-size: 9px;&quot;&gt;版本管理&lt;/font&gt;" style="rounded=1;whiteSpace=wrap;html=1;strokeColor=none;" vertex="1" parent="1">
          <mxGeometry x="566.23" y="559" width="42" height="18" as="geometry" />
        </mxCell>
        <mxCell id="E3BWysnh0JCf3asBgDTX-10" value="&lt;font style=&quot;font-size: 9px;&quot;&gt;交易管理&lt;/font&gt;" style="rounded=1;whiteSpace=wrap;html=1;strokeColor=none;" vertex="1" parent="1">
          <mxGeometry x="617.23" y="558" width="45" height="19" as="geometry" />
        </mxCell>
        <mxCell id="E3BWysnh0JCf3asBgDTX-11" value="&lt;font style=&quot;font-size: 9px;&quot;&gt;身份管理&lt;/font&gt;" style="rounded=1;whiteSpace=wrap;html=1;strokeColor=none;" vertex="1" parent="1">
          <mxGeometry x="570.23" y="653" width="89" height="18" as="geometry" />
        </mxCell>
        <mxCell id="E3BWysnh0JCf3asBgDTX-12" value="&lt;font style=&quot;font-size: 9px;&quot;&gt;数据管理合约&lt;/font&gt;" style="rounded=1;whiteSpace=wrap;html=1;strokeColor=none;fillColor=#f8cecc;" vertex="1" parent="1">
          <mxGeometry x="585.27" y="602" width="63" height="18" as="geometry" />
        </mxCell>
        <mxCell id="E3BWysnh0JCf3asBgDTX-13" value="&lt;font style=&quot;font-size: 9px;&quot;&gt;数据检索合约&lt;/font&gt;" style="rounded=1;whiteSpace=wrap;html=1;strokeColor=none;fillColor=#f8cecc;" vertex="1" parent="1">
          <mxGeometry x="585.27" y="622" width="63" height="18" as="geometry" />
        </mxCell>
        <mxCell id="E3BWysnh0JCf3asBgDTX-14" value="&lt;font style=&quot;font-size: 9px;&quot;&gt;共识服务&lt;/font&gt;" style="rounded=1;whiteSpace=wrap;html=1;strokeColor=none;" vertex="1" parent="1">
          <mxGeometry x="568" y="695" width="42" height="18" as="geometry" />
        </mxCell>
        <mxCell id="E3BWysnh0JCf3asBgDTX-15" value="&lt;font style=&quot;font-size: 9px;&quot;&gt;链码服务&lt;/font&gt;" style="rounded=1;whiteSpace=wrap;html=1;strokeColor=none;" vertex="1" parent="1">
          <mxGeometry x="615" y="695" width="42" height="18" as="geometry" />
        </mxCell>
        <mxCell id="E3BWysnh0JCf3asBgDTX-16" value="&lt;font style=&quot;font-size: 9px;&quot;&gt;成员服务&lt;/font&gt;&lt;div&gt;&lt;font style=&quot;font-size: 9px;&quot;&gt;&lt;br&gt;&lt;/font&gt;&lt;/div&gt;" style="rounded=1;whiteSpace=wrap;html=1;strokeColor=none;" vertex="1" parent="1">
          <mxGeometry x="568" y="722" width="90" height="33" as="geometry" />
        </mxCell>
        <mxCell id="E3BWysnh0JCf3asBgDTX-17" value="&lt;font style=&quot;font-size: 9px;&quot;&gt;安全及密码服务&lt;/font&gt;" style="rounded=1;whiteSpace=wrap;html=1;strokeColor=none;" vertex="1" parent="1">
          <mxGeometry x="568" y="760" width="91" height="18" as="geometry" />
        </mxCell>
        <mxCell id="E3BWysnh0JCf3asBgDTX-18" value="&lt;font style=&quot;font-size: 9px;&quot;&gt;MSP&lt;/font&gt;" style="rounded=1;whiteSpace=wrap;html=1;strokeColor=none;fillColor=#f8cecc;" vertex="1" parent="1">
          <mxGeometry x="576" y="740" width="32" height="12" as="geometry" />
        </mxCell>
        <mxCell id="E3BWysnh0JCf3asBgDTX-19" value="&lt;font style=&quot;font-size: 9px;&quot;&gt;PKI&lt;/font&gt;" style="rounded=1;whiteSpace=wrap;html=1;strokeColor=none;fillColor=#f8cecc;" vertex="1" parent="1">
          <mxGeometry x="617" y="740" width="32" height="12" as="geometry" />
        </mxCell>
        <mxCell id="E3BWysnh0JCf3asBgDTX-20" value="" style="rounded=1;whiteSpace=wrap;html=1;dashed=1;" vertex="1" parent="1">
          <mxGeometry x="46" y="470" width="419" height="327" as="geometry" />
        </mxCell>
        <mxCell id="E3BWysnh0JCf3asBgDTX-21" value="&lt;b&gt;&amp;nbsp; web前端&lt;/b&gt;" style="rounded=1;whiteSpace=wrap;html=1;align=left;fillColor=#dae8fc;strokeColor=#6c8ebf;" vertex="1" parent="1">
          <mxGeometry x="59" y="496" width="387" height="38" as="geometry" />
        </mxCell>
        <mxCell id="E3BWysnh0JCf3asBgDTX-22" value="&lt;b&gt;&amp;nbsp; web后端&lt;/b&gt;" style="rounded=1;whiteSpace=wrap;html=1;align=left;fillColor=#d5e8d4;strokeColor=#82b366;" vertex="1" parent="1">
          <mxGeometry x="60" y="556" width="385" height="109" as="geometry" />
        </mxCell>
        <mxCell id="E3BWysnh0JCf3asBgDTX-23" value="&lt;b&gt;数据系统&lt;/b&gt;" style="rounded=1;whiteSpace=wrap;html=1;align=left;fillColor=#e1d5e7;strokeColor=#9673a6;" vertex="1" parent="1">
          <mxGeometry x="64" y="687" width="383.75" height="93" as="geometry" />
        </mxCell>
        <mxCell id="E3BWysnh0JCf3asBgDTX-24" value="&lt;font style=&quot;font-size: 10px;&quot;&gt;&lt;b&gt;API&lt;/b&gt;&lt;/font&gt;&lt;div&gt;&lt;font style=&quot;font-size: 10px;&quot;&gt;&lt;b&gt;&lt;br&gt;&lt;/b&gt;&lt;/font&gt;&lt;/div&gt;&lt;div&gt;&lt;font style=&quot;font-size: 10px;&quot;&gt;&lt;b&gt;&lt;br&gt;&lt;/b&gt;&lt;/font&gt;&lt;/div&gt;&lt;div&gt;&lt;font style=&quot;font-size: 10px;&quot;&gt;&lt;b&gt;&lt;br&gt;&lt;/b&gt;&lt;/font&gt;&lt;/div&gt;&lt;div&gt;&lt;font style=&quot;font-size: 10px;&quot;&gt;&lt;b&gt;&lt;br&gt;&lt;/b&gt;&lt;/font&gt;&lt;/div&gt;&lt;div&gt;&lt;br&gt;&lt;/div&gt;" style="rounded=1;whiteSpace=wrap;html=1;fillColor=#60a917;fontColor=#ffffff;strokeColor=#2D7600;" vertex="1" parent="1">
          <mxGeometry x="136" y="568" width="125" height="89" as="geometry" />
        </mxCell>
        <mxCell id="E3BWysnh0JCf3asBgDTX-25" value="&lt;font style=&quot;font-size: 9px;&quot;&gt;用户管理API&lt;/font&gt;" style="rounded=0;whiteSpace=wrap;html=1;" vertex="1" parent="1">
          <mxGeometry x="139" y="592" width="55" height="21" as="geometry" />
        </mxCell>
        <mxCell id="E3BWysnh0JCf3asBgDTX-26" value="&lt;font style=&quot;font-size: 9px;&quot;&gt;数据检索API&lt;/font&gt;" style="rounded=0;whiteSpace=wrap;html=1;" vertex="1" parent="1">
          <mxGeometry x="197" y="592" width="55" height="21" as="geometry" />
        </mxCell>
        <mxCell id="E3BWysnh0JCf3asBgDTX-27" value="&lt;font style=&quot;font-size: 10px;&quot;&gt;&lt;b&gt;检索索引&lt;/b&gt;&lt;/font&gt;&lt;div&gt;&lt;font style=&quot;font-size: 10px;&quot;&gt;&lt;b&gt;&lt;br&gt;&lt;/b&gt;&lt;/font&gt;&lt;/div&gt;&lt;div&gt;&lt;font style=&quot;font-size: 10px;&quot;&gt;&lt;b&gt;&lt;br&gt;&lt;/b&gt;&lt;/font&gt;&lt;/div&gt;&lt;div&gt;&lt;font style=&quot;font-size: 10px;&quot;&gt;&lt;b&gt;&lt;br&gt;&lt;/b&gt;&lt;/font&gt;&lt;/div&gt;&lt;div&gt;&lt;font style=&quot;font-size: 10px;&quot;&gt;&lt;b&gt;&lt;br&gt;&lt;/b&gt;&lt;/font&gt;&lt;/div&gt;&lt;div&gt;&lt;font style=&quot;font-size: 10px;&quot;&gt;&lt;br&gt;&lt;/font&gt;&lt;/div&gt;" style="rounded=1;whiteSpace=wrap;html=1;fillColor=#60a917;fontColor=#ffffff;strokeColor=#2D7600;" vertex="1" parent="1">
          <mxGeometry x="273" y="568" width="70" height="89" as="geometry" />
        </mxCell>
        <mxCell id="E3BWysnh0JCf3asBgDTX-28" value="&lt;font style=&quot;font-size: 9px;&quot;&gt;索引结构存储&lt;/font&gt;" style="rounded=0;whiteSpace=wrap;html=1;" vertex="1" parent="1">
          <mxGeometry x="279.25" y="591" width="57.5" height="21" as="geometry" />
        </mxCell>
        <mxCell id="E3BWysnh0JCf3asBgDTX-29" value="&lt;div&gt;&lt;font style=&quot;font-size: 10px;&quot;&gt;&lt;b&gt;数据处理器&lt;/b&gt;&lt;/font&gt;&lt;/div&gt;&lt;div&gt;&lt;font style=&quot;font-size: 10px;&quot;&gt;&lt;b&gt;&lt;br&gt;&lt;/b&gt;&lt;/font&gt;&lt;/div&gt;&lt;div&gt;&lt;font style=&quot;font-size: 10px;&quot;&gt;&lt;b&gt;&lt;br&gt;&lt;/b&gt;&lt;/font&gt;&lt;/div&gt;&lt;div&gt;&lt;font style=&quot;font-size: 10px;&quot;&gt;&lt;b&gt;&lt;br&gt;&lt;/b&gt;&lt;/font&gt;&lt;/div&gt;&lt;div&gt;&lt;font style=&quot;font-size: 10px;&quot;&gt;&lt;b&gt;&lt;br&gt;&lt;/b&gt;&lt;/font&gt;&lt;/div&gt;&lt;div&gt;&lt;font style=&quot;font-size: 10px;&quot;&gt;&lt;br&gt;&lt;/font&gt;&lt;/div&gt;" style="rounded=1;whiteSpace=wrap;html=1;fillColor=#60a917;fontColor=#ffffff;strokeColor=#2D7600;" vertex="1" parent="1">
          <mxGeometry x="349" y="568" width="90" height="89" as="geometry" />
        </mxCell>
        <mxCell id="E3BWysnh0JCf3asBgDTX-30" value="&lt;font style=&quot;font-size: 9px;&quot;&gt;数据检索接口&lt;/font&gt;" style="rounded=0;whiteSpace=wrap;html=1;" vertex="1" parent="1">
          <mxGeometry x="279.25" y="619" width="57.5" height="21" as="geometry" />
        </mxCell>
        <mxCell id="E3BWysnh0JCf3asBgDTX-31" value="&lt;font style=&quot;font-size: 9px;&quot;&gt;构造数据完整性证明&lt;/font&gt;" style="rounded=0;whiteSpace=wrap;html=1;" vertex="1" parent="1">
          <mxGeometry x="351" y="619" width="84" height="21" as="geometry" />
        </mxCell>
        <mxCell id="E3BWysnh0JCf3asBgDTX-32" value="&lt;font style=&quot;font-size: 9px;&quot;&gt;构造数据更新证明&lt;/font&gt;" style="rounded=0;whiteSpace=wrap;html=1;" vertex="1" parent="1">
          <mxGeometry x="351" y="592" width="84" height="21" as="geometry" />
        </mxCell>
        <mxCell id="E3BWysnh0JCf3asBgDTX-33" value="&lt;font style=&quot;font-size: 9px;&quot;&gt;数据管理API&lt;/font&gt;" style="rounded=0;whiteSpace=wrap;html=1;" vertex="1" parent="1">
          <mxGeometry x="139" y="619" width="55" height="21" as="geometry" />
        </mxCell>
        <mxCell id="E3BWysnh0JCf3asBgDTX-34" value="&lt;font style=&quot;font-size: 9px;&quot;&gt;日志记录API&lt;/font&gt;" style="rounded=0;whiteSpace=wrap;html=1;" vertex="1" parent="1">
          <mxGeometry x="197" y="619" width="55" height="21" as="geometry" />
        </mxCell>
        <mxCell id="E3BWysnh0JCf3asBgDTX-35" value="&lt;font style=&quot;font-size: 9px;&quot;&gt;用户登录及鉴权&lt;/font&gt;" style="rounded=0;whiteSpace=wrap;html=1;fillColor=#1ba1e2;fontColor=#ffffff;strokeColor=#006EAF;" vertex="1" parent="1">
          <mxGeometry x="292" y="504.5" width="67" height="21" as="geometry" />
        </mxCell>
        <mxCell id="E3BWysnh0JCf3asBgDTX-36" value="&lt;font style=&quot;font-size: 9px;&quot;&gt;可视化日志记录&lt;/font&gt;" style="rounded=0;whiteSpace=wrap;html=1;fillColor=#1ba1e2;fontColor=#ffffff;strokeColor=#006EAF;" vertex="1" parent="1">
          <mxGeometry x="374" y="504.5" width="67" height="21" as="geometry" />
        </mxCell>
        <mxCell id="E3BWysnh0JCf3asBgDTX-37" value="&lt;font style=&quot;font-size: 9px;&quot;&gt;数据管理入口&lt;/font&gt;" style="rounded=0;whiteSpace=wrap;html=1;fillColor=#1ba1e2;fontColor=#ffffff;strokeColor=#006EAF;" vertex="1" parent="1">
          <mxGeometry x="130.25" y="504.5" width="67" height="21" as="geometry" />
        </mxCell>
        <mxCell id="E3BWysnh0JCf3asBgDTX-38" value="&lt;font style=&quot;font-size: 9px;&quot;&gt;数据检索入口&lt;/font&gt;" style="rounded=0;whiteSpace=wrap;html=1;fillColor=#1ba1e2;fontColor=#ffffff;strokeColor=#006EAF;" vertex="1" parent="1">
          <mxGeometry x="212.25" y="504.5" width="67" height="21" as="geometry" />
        </mxCell>
        <mxCell id="E3BWysnh0JCf3asBgDTX-39" value="&lt;b&gt;&lt;span style=&quot;font-size: 10px;&quot;&gt;数据存储&lt;/span&gt;&lt;br&gt;&lt;/b&gt;&lt;div&gt;&lt;font style=&quot;font-size: 10px;&quot;&gt;&lt;b&gt;&lt;br&gt;&lt;/b&gt;&lt;/font&gt;&lt;/div&gt;&lt;div&gt;&lt;font style=&quot;font-size: 10px;&quot;&gt;&lt;b&gt;&lt;br&gt;&lt;/b&gt;&lt;/font&gt;&lt;/div&gt;&lt;div&gt;&lt;font style=&quot;font-size: 10px;&quot;&gt;&lt;b&gt;&lt;br&gt;&lt;/b&gt;&lt;/font&gt;&lt;/div&gt;&lt;div&gt;&lt;font style=&quot;font-size: 10px;&quot;&gt;&lt;b&gt;&lt;br&gt;&lt;/b&gt;&lt;/font&gt;&lt;/div&gt;&lt;div&gt;&lt;br&gt;&lt;/div&gt;" style="rounded=1;whiteSpace=wrap;html=1;fillColor=#76608a;fontColor=#ffffff;strokeColor=#432D57;" vertex="1" parent="1">
          <mxGeometry x="139" y="692" width="124" height="83" as="geometry" />
        </mxCell>
        <mxCell id="E3BWysnh0JCf3asBgDTX-40" value="&lt;font size=&quot;1&quot;&gt;MongoDB 存储&lt;/font&gt;" style="rounded=0;whiteSpace=wrap;html=1;" vertex="1" parent="1">
          <mxGeometry x="149.5" y="713" width="98" height="21" as="geometry" />
        </mxCell>
        <mxCell id="E3BWysnh0JCf3asBgDTX-44" value="&lt;font style=&quot;font-size: 10px;&quot;&gt;&lt;b&gt;数据检索&lt;/b&gt;&lt;/font&gt;&lt;div&gt;&lt;font style=&quot;font-size: 10px;&quot;&gt;&lt;b&gt;&lt;br&gt;&lt;/b&gt;&lt;/font&gt;&lt;/div&gt;&lt;div&gt;&lt;font style=&quot;font-size: 10px;&quot;&gt;&lt;b&gt;&lt;br&gt;&lt;/b&gt;&lt;/font&gt;&lt;/div&gt;&lt;div&gt;&lt;font style=&quot;font-size: 10px;&quot;&gt;&lt;b&gt;&lt;br&gt;&lt;/b&gt;&lt;/font&gt;&lt;/div&gt;&lt;div&gt;&lt;b&gt;&lt;br&gt;&lt;/b&gt;&lt;/div&gt;&lt;div&gt;&lt;br&gt;&lt;/div&gt;" style="rounded=1;whiteSpace=wrap;html=1;fillColor=#76608a;fontColor=#ffffff;strokeColor=#432D57;" vertex="1" parent="1">
          <mxGeometry x="292" y="692" width="123" height="83" as="geometry" />
        </mxCell>
        <mxCell id="E3BWysnh0JCf3asBgDTX-47" value="" style="shape=flexArrow;endArrow=classic;html=1;rounded=0;exitX=0.25;exitY=0;exitDx=0;exitDy=0;entryX=0.25;entryY=1;entryDx=0;entryDy=0;endWidth=11.851851851851851;endSize=2.496296296296296;fillColor=#b1ddf0;strokeColor=#10739e;" edge="1" parent="1" source="E3BWysnh0JCf3asBgDTX-22" target="E3BWysnh0JCf3asBgDTX-21">
          <mxGeometry width="50" height="50" relative="1" as="geometry">
            <mxPoint x="162.25" y="554.5" as="sourcePoint" />
            <mxPoint x="212.25" y="504.5" as="targetPoint" />
          </mxGeometry>
        </mxCell>
        <mxCell id="E3BWysnh0JCf3asBgDTX-48" value="" style="shape=flexArrow;endArrow=classic;html=1;rounded=0;exitX=0.25;exitY=0;exitDx=0;exitDy=0;entryX=0.25;entryY=1;entryDx=0;entryDy=0;endWidth=11.851851851851851;endSize=2.496296296296296;fillColor=#b1ddf0;strokeColor=#10739e;" edge="1" parent="1">
          <mxGeometry width="50" height="50" relative="1" as="geometry">
            <mxPoint x="359" y="553" as="sourcePoint" />
            <mxPoint x="359" y="531" as="targetPoint" />
          </mxGeometry>
        </mxCell>
        <mxCell id="E3BWysnh0JCf3asBgDTX-49" value="" style="shape=flexArrow;endArrow=classic;html=1;rounded=0;exitX=0.25;exitY=0;exitDx=0;exitDy=0;entryX=0.25;entryY=1;entryDx=0;entryDy=0;endWidth=11.851851851851851;endSize=2.496296296296296;fillColor=#b1ddf0;strokeColor=#10739e;" edge="1" parent="1">
          <mxGeometry width="50" height="50" relative="1" as="geometry">
            <mxPoint x="163.38" y="665" as="sourcePoint" />
            <mxPoint x="163.38" y="687" as="targetPoint" />
          </mxGeometry>
        </mxCell>
        <mxCell id="E3BWysnh0JCf3asBgDTX-50" value="" style="shape=flexArrow;endArrow=classic;html=1;rounded=0;exitX=0.25;exitY=0;exitDx=0;exitDy=0;entryX=0.25;entryY=1;entryDx=0;entryDy=0;endWidth=11.851851851851851;endSize=2.496296296296296;fillColor=#b1ddf0;strokeColor=#10739e;" edge="1" parent="1">
          <mxGeometry width="50" height="50" relative="1" as="geometry">
            <mxPoint x="365" y="665" as="sourcePoint" />
            <mxPoint x="365" y="687" as="targetPoint" />
          </mxGeometry>
        </mxCell>
        <mxCell id="E3BWysnh0JCf3asBgDTX-51" value="" style="shape=flexArrow;endArrow=classic;html=1;rounded=0;exitX=-0.006;exitY=0.407;exitDx=0;exitDy=0;endWidth=11.851851851851851;endSize=2.496296296296296;exitPerimeter=0;fillColor=#b1ddf0;strokeColor=#10739e;" edge="1" parent="1" source="E3BWysnh0JCf3asBgDTX-1">
          <mxGeometry width="50" height="50" relative="1" as="geometry">
            <mxPoint x="491" y="598.5" as="sourcePoint" />
            <mxPoint x="464" y="604" as="targetPoint" />
          </mxGeometry>
        </mxCell>
        <mxCell id="E3BWysnh0JCf3asBgDTX-52" value="&lt;font style=&quot;font-size: 9px;&quot;&gt;向客户端提供服务接口&lt;/font&gt;" style="rounded=0;whiteSpace=wrap;html=1;strokeColor=none;" vertex="1" parent="1">
          <mxGeometry x="194" y="536.5" width="137" height="14.5" as="geometry" />
        </mxCell>
        <mxCell id="E3BWysnh0JCf3asBgDTX-53" value="&lt;font style=&quot;font-size: 9px;&quot;&gt;转发请求&lt;/font&gt;" style="rounded=0;whiteSpace=wrap;html=1;strokeColor=none;" vertex="1" parent="1">
          <mxGeometry x="197" y="669" width="137" height="14.5" as="geometry" />
        </mxCell>
        <mxCell id="E3BWysnh0JCf3asBgDTX-54" value="&lt;font style=&quot;font-size: 9px;&quot;&gt;监管审计&lt;/font&gt;" style="rounded=0;whiteSpace=wrap;html=1;strokeColor=none;" vertex="1" parent="1">
          <mxGeometry x="469" y="570" width="41" height="15" as="geometry" />
        </mxCell>
        <mxCell id="E3BWysnh0JCf3asBgDTX-55" value="&lt;font style=&quot;font-size: 9px;&quot;&gt;转发请求&lt;/font&gt;" style="rounded=0;whiteSpace=wrap;html=1;strokeColor=none;" vertex="1" parent="1">
          <mxGeometry x="471" y="642" width="41" height="15" as="geometry" />
        </mxCell>
        <mxCell id="E3BWysnh0JCf3asBgDTX-56" value="" style="shape=flexArrow;endArrow=classic;html=1;rounded=0;exitX=-0.006;exitY=0.407;exitDx=0;exitDy=0;endWidth=11.851851851851851;endSize=2.496296296296296;exitPerimeter=0;fillColor=#b1ddf0;strokeColor=#10739e;" edge="1" parent="1">
          <mxGeometry width="50" height="50" relative="1" as="geometry">
            <mxPoint x="464.5" y="629.13" as="sourcePoint" />
            <mxPoint x="514.5" y="629.13" as="targetPoint" />
          </mxGeometry>
        </mxCell>
        <mxCell id="E3BWysnh0JCf3asBgDTX-57" value="&lt;font size=&quot;1&quot;&gt;IPFS 存储&lt;/font&gt;" style="rounded=0;whiteSpace=wrap;html=1;" vertex="1" parent="1">
          <mxGeometry x="149.5" y="740" width="98" height="21" as="geometry" />
        </mxCell>
        <mxCell id="E3BWysnh0JCf3asBgDTX-58" value="&lt;font size=&quot;1&quot;&gt;索引优化&lt;/font&gt;" style="rounded=0;whiteSpace=wrap;html=1;" vertex="1" parent="1">
          <mxGeometry x="304.5" y="713" width="98" height="21" as="geometry" />
        </mxCell>
      </root>
    </mxGraphModel>
  </diagram>
</mxfile>
